# xmcd CD database file
#
# Track frame offsets:
#	150
#	14657
#	41219
#	62912
#	86458
#	110537
#	130808
#	153112
#	170211
#	185756
#	203544
#	215845
#	234197
#	257203
#	270727
#
# Disc length: 3811 seconds
#
# Revision: 0
# Processed by: cddbd v1.5.2PL0 Copyright (c) Steve Scherf et al.
# Submitted via: CDex 1.70beta2
#
DISCID=dc0ee10f
DTITLE=Stanley Jacobsen - Veslefrikk med fela
DYEAR=2009
DGENRE=Barnesanger
TTITLE0=Nisseintro
TTITLE1=Bånsull
TTITLE2=Eg greier meg
TTITLE3=Eg er Lensmann
TTITLE4=KjærLeik-songen
TTITLE5=SkiLLing-songen
TTITLE6=Ønskje-songen
TTITLE7=Fele-songen
TTITLE8=Vertshusduett
TTITLE9=VertshusLÅtt
TTITLE10=Domar-songen
TTITLE11=Forsvar-songen
TTITLE12=Tenk om verda var utan musikk
TTITLE13=Fest-songen
TTITLE14=VertshusLÅtt 2
EXTD=YEAR: 2009
EXTT0=
EXTT1=
EXTT2=
EXTT3=
EXTT4=
EXTT5=
EXTT6=
EXTT7=
EXTT8=
EXTT9=
EXTT10=
EXTT11=
EXTT12=
EXTT13=
EXTT14=
PLAYORDER=
